<svg xmlns="http://www.w3.org/2000/svg" viewBox="0 0 64 64">
  <defs>
    <linearGradient id="g" x1="0" x2="1" y1="0" y2="1">
      <stop offset="0%" stop-color="#2563eb"/>
      <stop offset="100%" stop-color="#22c55e"/>
    </linearGradient>
  </defs>
  <rect width="64" height="64" rx="12" fill="url(#g)"/>
  <g fill="#fff">
    <path d="M18 36c0-7.732 6.268-14 14-14a14 14 0 0 1 9.9 24.1l4.1 4.1A20 20 0 1 0 14 32h4a18 18 0 1 1 31.8 12.7l-4.1-4.1A14 14 0 0 0 32 22c-7.732 0-14 6.268-14 14z" opacity=".25"/>
    <path d="M32 18a2 2 0 0 1 2 2v3h2a2 2 0 1 1 0 4h-2v2h2a2 2 0 1 1 0 4h-2v3a2 2 0 1 1-4 0v-3h-2a2 2 0 1 1 0-4h2v-2h-2a2 2 0 1 1 0-4h2v-3a2 2 0 0 1 2-2z"/>
  </g>
</svg>